<svg width="256" height="238" viewBox="0 0 256 238" fill="none" xmlns="http://www.w3.org/2000/svg">
<g opacity="0.6">
<rect x="141" y="9" width="110" height="36" rx="8" fill="white"/>
<circle cx="159" cy="27" r="11" fill="#1BC99F"/>
<path d="M153 28L157 32L165 24" stroke="white" stroke-width="2" stroke-linecap="round" stroke-linejoin="round"/>
<rect x="177" y="20" width="26" height="5" rx="2.5" fill="#253056"/>
<rect x="177" y="31" width="64" height="3" rx="1.5" fill="#9FA6BD"/>
</g>
<rect x="136" y="57" width="120" height="44" rx="10" fill="white"/>
<circle cx="158" cy="79" r="14" fill="#635DFF"/>
<path d="M153.389 76.612V77.044H155.765V76.648C155.765 75.01 156.863 74.272 158.159 74.272C159.455 74.272 160.301 75.01 160.301 76.252C160.301 77.728 159.221 78.322 157.421 78.808C155.099 79.438 153.461 80.554 153.461 82.84V85H162.605V82.84H155.837V82.624C155.837 81.454 156.773 81.076 158.537 80.626C161.183 79.96 162.677 78.808 162.677 76.324C162.677 73.732 160.571 72.148 158.123 72.148C155.567 72.148 153.389 73.66 153.389 76.612Z" fill="white"/>
<rect x="180" y="71" width="38" height="6" rx="3" fill="#253056"/>
<rect x="180" y="83" width="65" height="4" rx="2" fill="#9FA6BD"/>
<rect y="158" width="80" height="80" rx="10" fill="url(#paint0_linear)"/>
<path d="M36.034 183.6H31.204V204.18C31.204 207.288 29.776 209.178 26.794 209.178C23.728 209.178 22.09 207.246 22.09 204.18V201.576H17.218V204.18C17.218 210.144 20.956 213.588 26.92 213.588C32.674 213.588 36.034 210.27 36.034 204.18V183.6ZM50.8236 183.012C44.6496 183.012 40.6176 186.162 40.6176 191.412C40.6176 196.62 44.0616 198.678 49.8996 199.98L51.2856 200.274C55.1076 201.156 57.2916 202.122 57.2916 204.81C57.2916 207.456 55.1496 209.304 51.1176 209.304C47.0436 209.304 44.4816 207.372 44.4816 203.34V202.962H39.6936V203.34C39.6936 209.934 44.4396 213.588 51.1176 213.588C57.7956 213.588 62.0796 209.976 62.0796 204.684C62.0796 199.392 58.1316 197.25 52.2516 195.99L50.8656 195.654C47.1696 194.814 45.4056 193.764 45.4056 191.244C45.4056 188.766 47.2956 187.296 50.8236 187.296C54.4356 187.296 56.7876 188.766 56.7876 192.42V193.344H61.5756V192.42C61.5756 186.162 56.9976 183.012 50.8236 183.012Z" fill="black"/>
<path d="M0 20C0 8.9543 8.95431 0 20 0H100C111.046 0 120 8.95431 120 20V98C120 109.046 128.954 118 140 118H196C207.046 118 216 126.954 216 138V218C216 229.046 207.046 238 196 238H116C104.954 238 96 229.046 96 218V162C96 150.954 87.0457 142 76 142H20C8.9543 142 0 133.046 0 122V20Z" fill="#182144"/>
<path d="M186.5 178C186.5 194.867 173.046 208.5 156.5 208.5C139.954 208.5 126.5 194.867 126.5 178C126.5 161.133 139.954 147.5 156.5 147.5C173.046 147.5 186.5 161.133 186.5 178Z" stroke="#1BC99F" stroke-width="3"/>
<path d="M139 180L150 191L173 168" stroke="#1BC99F" stroke-width="3" stroke-linecap="round" stroke-linejoin="round"/>
<rect x="14" y="50" width="6" height="6" rx="3" fill="#4D5880"/>
<rect x="28" y="51" width="27" height="4" rx="2" fill="white"/>
<rect x="14" y="26" width="6" height="6" rx="3" fill="#4D5880"/>
<rect x="28" y="27" width="16" height="4" rx="2" fill="#FF4F40"/>
<rect x="48" y="27" width="27" height="4" rx="2" fill="white"/>
<rect x="14" y="38" width="6" height="6" rx="3" fill="#4D5880"/>
<rect x="14" y="14" width="6" height="6" rx="3" fill="#4D5880"/>
<rect x="28" y="15" width="16" height="4" rx="2" fill="#FF4F40"/>
<rect x="48" y="15" width="16" height="4" rx="2" fill="white"/>
<rect x="14" y="62" width="6" height="6" rx="3" fill="#4D5880"/>
<rect x="38" y="63" width="27" height="4" rx="2" fill="white"/>
<rect x="69" y="63" width="12" height="4" rx="2" fill="#909BC2"/>
<rect x="85" y="63" width="12" height="4" rx="2" fill="white"/>
<rect x="14" y="74" width="6" height="6" rx="3" fill="#4D5880"/>
<rect x="48" y="75" width="12" height="4" rx="2" fill="#909BC2"/>
<rect x="64" y="75" width="16" height="4" rx="2" fill="#1BC99F"/>
<rect x="14" y="86" width="6" height="6" rx="3" fill="#4D5880"/>
<rect x="48" y="87" width="24" height="4" rx="2" fill="white"/>
<rect x="76" y="87" width="16" height="4" rx="2" fill="white"/>
<rect x="14" y="98" width="6" height="6" rx="3" fill="#4D5880"/>
<rect x="48" y="99" width="16" height="4" rx="2" fill="white"/>
<rect x="68" y="99" width="38" height="4" rx="2" fill="white"/>
<rect x="14" y="110" width="6" height="6" rx="3" fill="#4D5880"/>
<rect x="38" y="111" width="8" height="4" rx="2" fill="white"/>
<rect x="14" y="122" width="6" height="6" rx="3" fill="#4D5880"/>
<rect x="28" y="123" width="8" height="4" rx="2" fill="white"/>
<defs>
<linearGradient id="paint0_linear" x1="0" y1="158" x2="80" y2="238" gradientUnits="userSpaceOnUse">
<stop stop-color="#EBCA40"/>
<stop offset="1" stop-color="#FF7F38"/>
</linearGradient>
</defs>
</svg>
